<svg width="48" height="48" viewBox="0 0 48 48" fill="none" xmlns="http://www.w3.org/2000/svg">
<path fill-rule="evenodd" clip-rule="evenodd" d="M24 9.60117C24.9941 9.60117 25.8 10.4071 25.8 11.4012V22.2015H36.6C37.5941 22.2015 38.4 23.0073 38.4 24.0015C38.4 24.9956 37.5941 25.8015 36.6 25.8015H25.8V36.6012C25.8 37.5953 24.9941 38.4012 24 38.4012C23.0059 38.4012 22.2 37.5953 22.2 36.6012V25.8015H11.4C10.4059 25.8015 9.60001 24.9956 9.60001 24.0015C9.60001 23.0073 10.4059 22.2015 11.4 22.2015H22.2V11.4012C22.2 10.4071 23.0059 9.60117 24 9.60117Z" fill="#F2F2F2"/>
</svg>
