<svg width="16" height="16" viewBox="0 0 16 16" fill="none" xmlns="http://www.w3.org/2000/svg">
<g clip-path="url(#clip0_1625_3311)">
<path d="M8.70677 2.18869C8.51927 2.00143 8.2651 1.89624 8.0001 1.89624C7.7351 1.89624 7.48094 2.00143 7.29344 2.18869L3.52077 5.95936C3.33317 6.14696 3.22778 6.40139 3.22778 6.66669C3.22778 6.932 3.33317 7.18643 3.52077 7.37403C3.70837 7.56162 3.9628 7.66701 4.2281 7.66701C4.49341 7.66701 4.74784 7.56162 4.93544 7.37403L7.0001 5.31003V13C7.0001 13.2652 7.10546 13.5196 7.293 13.7071C7.48053 13.8947 7.73489 14 8.0001 14C8.26532 14 8.51967 13.8947 8.70721 13.7071C8.89475 13.5196 9.0001 13.2652 9.0001 13V5.31003L11.0641 7.37403C11.157 7.46692 11.2673 7.5406 11.3886 7.59087C11.51 7.64114 11.6401 7.66701 11.7714 7.66701C11.9028 7.66701 12.0329 7.64114 12.1542 7.59087C12.2756 7.5406 12.3859 7.46692 12.4788 7.37403C12.5717 7.28114 12.6453 7.17086 12.6956 7.0495C12.7459 6.92814 12.7718 6.79806 12.7718 6.66669C12.7718 6.53533 12.7459 6.40525 12.6956 6.28389C12.6453 6.16252 12.5717 6.05225 12.4788 5.95936L8.70677 2.18869Z" fill="#219653"/>
</g>
<defs>
<clipPath id="clip0_1625_3311">
<rect width="16" height="16" fill="white"/>
</clipPath>
</defs>
</svg>
