<svg width="32" height="32" viewBox="0 0 32 32" fill="none" xmlns="http://www.w3.org/2000/svg">
<rect width="32" height="32" rx="16" fill="#00E480"/>
<g clip-path="url(#clip0_1879_14044)">
<path fill-rule="evenodd" clip-rule="evenodd" d="M16 10C14.8955 10 14 10.8954 14 12C14 13.1046 14.8955 14 16 14C17.1046 14 18 13.1046 18 12C18 10.8954 17.1046 10 16 10ZM12.8 12C12.8 10.2327 14.2327 8.8 16 8.8C17.7673 8.8 19.2 10.2327 19.2 12C19.2 13.7673 17.7673 15.2 16 15.2C14.2327 15.2 12.8 13.7673 12.8 12ZM10.4 21.3C10.4 18.8147 12.4147 16.8 14.9 16.8H16.6C16.9314 16.8 17.2 17.0686 17.2 17.4C17.2 17.7314 16.9314 18 16.6 18H14.9C13.0775 18 11.6 19.4775 11.6 21.3C11.6 21.6866 11.9134 22 12.3 22H15C15.3314 22 15.6 22.2686 15.6 22.6C15.6 22.9314 15.3314 23.2 15 23.2H12.3C11.2507 23.2 10.4 22.3493 10.4 21.3ZM20.8 17.6C21.1314 17.6 21.4 17.8686 21.4 18.2V20.2001H23.4C23.7314 20.2001 24 20.4687 24 20.8001C24 21.1315 23.7314 21.4001 23.4 21.4001H21.4V23.4C21.4 23.7314 21.1314 24 20.8 24C20.4687 24 20.2 23.7314 20.2 23.4V21.4001H18.2C17.8687 21.4001 17.6 21.1315 17.6 20.8001C17.6 20.4687 17.8687 20.2001 18.2 20.2001H20.2V18.2C20.2 17.8686 20.4687 17.6 20.8 17.6Z" fill="white"/>
</g>
<defs>
<clipPath id="clip0_1879_14044">
<rect width="16" height="16" fill="white" transform="translate(8 8)"/>
</clipPath>
</defs>
</svg>
