<svg width="32" height="32" viewBox="0 0 32 32" fill="none" xmlns="http://www.w3.org/2000/svg">
<rect width="32" height="32" rx="16" fill="#5664D2"/>
<path fill-rule="evenodd" clip-rule="evenodd" d="M17.1757 9.68689C18.3708 8.50437 20.3059 8.50437 21.501 9.68689C22.6996 10.8729 22.6996 12.7985 21.501 13.9845L14.9736 20.4431C14.2591 21.15 13.1034 21.15 12.3889 20.4431C11.6709 19.7327 11.6709 18.5782 12.3889 17.8678L18.046 12.2703C18.2816 12.0373 18.6615 12.0393 18.8945 12.2748C19.1276 12.5104 19.1256 12.8903 18.89 13.1233L13.2329 18.7208C12.9896 18.9616 12.9896 19.3493 13.2329 19.5901C13.4798 19.8343 13.8827 19.8343 14.1296 19.5901L20.657 13.1315C21.381 12.4151 21.381 11.2563 20.657 10.5399C19.9294 9.82004 18.7472 9.82004 18.0197 10.5399L11.7035 16.7895C11.6407 16.8517 11.6162 16.8759 11.5937 16.8993C11.0999 17.4118 10.8178 18.0868 10.8008 18.7923C10.8 18.8244 10.8 18.8585 10.8 18.9465C10.8 19.1475 10.8002 19.2267 10.8032 19.2906C10.8736 20.75 12.0551 21.9265 13.5437 21.9968C13.6089 21.9998 13.6895 22 13.8924 22C13.9812 22 14.0159 22 14.0487 21.9992C14.7671 21.9823 15.4521 21.701 15.9705 21.212C15.9941 21.1897 16.0186 21.1655 16.0814 21.1034L20.657 16.5761C20.8925 16.343 21.2724 16.345 21.5055 16.5805C21.7386 16.8161 21.7365 17.196 21.501 17.4291L16.9199 21.9618C16.8644 22.0168 16.8292 22.0516 16.7939 22.0849C16.0588 22.7784 15.09 23.175 14.077 23.1989C14.0284 23.2 13.9788 23.2 13.9003 23.2H13.8737C13.6955 23.2 13.5844 23.2 13.4872 23.1954C11.3911 23.0965 9.70521 21.4358 9.60462 19.3483C9.59997 19.2517 9.59997 19.1414 9.59998 18.9655L9.59998 18.9387C9.59998 18.861 9.59997 18.8118 9.60114 18.7634C9.6254 17.7558 10.0284 16.7944 10.7296 16.0666C10.7633 16.0317 10.7984 15.9969 10.8541 15.9419L17.1757 9.68689Z" fill="white"/>
</svg>
