<svg width="32" height="32" viewBox="0 0 32 32" fill="none" xmlns="http://www.w3.org/2000/svg">
<rect width="32" height="32" rx="16" fill="#FD5353"/>
<path fill-rule="evenodd" clip-rule="evenodd" d="M12.8 11C12.8 9.78496 13.7849 8.79999 15 8.79999H17C18.215 8.79999 19.2 9.78496 19.2 11V11.2H21.8C22.1313 11.2 22.4 11.4686 22.4 11.8C22.4 12.1314 22.1313 12.4 21.8 12.4H21.5676L21.083 21.122C21.0182 22.2878 20.054 23.2 18.8864 23.2H13.1136C11.9459 23.2 10.9817 22.2878 10.9169 21.122L10.4324 12.4H10.2C9.8686 12.4 9.59998 12.1314 9.59998 11.8C9.59998 11.4686 9.8686 11.2 10.2 11.2H12.8V11ZM11.6342 12.4L12.1151 21.0555C12.1445 21.5854 12.5828 22 13.1136 22H18.8864C19.4171 22 19.8554 21.5854 19.8849 21.0555L20.3657 12.4H11.6342ZM18 11.2H14V11C14 10.4477 14.4477 9.99999 15 9.99999H17C17.5523 9.99999 18 10.4477 18 11V11.2ZM14.2 14.4C14.5313 14.4 14.8 14.6686 14.8 15V19.4C14.8 19.7314 14.5313 20 14.2 20C13.8686 20 13.6 19.7314 13.6 19.4V15C13.6 14.6686 13.8686 14.4 14.2 14.4ZM17.8 14.4C18.1313 14.4 18.4 14.6686 18.4 15V19.4C18.4 19.7314 18.1313 20 17.8 20C17.4686 20 17.2 19.7314 17.2 19.4V15C17.2 14.6686 17.4686 14.4 17.8 14.4Z" fill="white"/>
</svg>
