<svg width="32" height="32" viewBox="0 0 32 32" fill="none" xmlns="http://www.w3.org/2000/svg">
<rect width="32" height="32" rx="16" fill="#0E1621"/>
<g clip-path="url(#clip0_1879_14064)">
<path fill-rule="evenodd" clip-rule="evenodd" d="M18.313 9.63848C18.8499 9.10161 19.5781 8.8 20.3373 8.8C21.9184 8.8 23.2 10.0817 23.2 11.6627C23.2 12.422 22.8984 13.1501 22.3616 13.687L13.0243 23.0243C12.9118 23.1368 12.7592 23.2 12.6 23.2H9.40005C9.06868 23.2 8.80005 22.9314 8.80005 22.6V19.4C8.80005 19.2409 8.86326 19.0883 8.97578 18.9757L18.313 9.63848ZM20.3373 10C19.8963 10 19.4734 10.1752 19.1616 10.487L18.8486 10.8L21.2 13.1515L21.513 12.8385C21.8249 12.5267 22 12.1037 22 11.6627C22 10.7444 21.2556 10 20.3373 10ZM20.3515 14L18 11.6485L10 19.6485V22H12.3515L20.3515 14Z" fill="#BDBDBD"/>
</g>
<defs>
<clipPath id="clip0_1879_14064">
<rect width="16" height="16" fill="white" transform="translate(8 8)"/>
</clipPath>
</defs>
</svg>
