<svg width="18" height="18" viewBox="0 0 18 18" fill="none" xmlns="http://www.w3.org/2000/svg">
<path fill-rule="evenodd" clip-rule="evenodd" d="M9.0928 1.52324C8.99905 1.47488 8.86181 1.50026 8.79335 1.64523L7.00799 5.42557C6.76215 5.94613 6.27807 6.32297 5.69953 6.41082L1.70736 7.01703C1.66367 7.02366 1.61758 7.04593 1.57857 7.08775C1.47149 7.20255 1.47467 7.39827 1.58316 7.50878L4.47192 10.4514C4.87611 10.8631 5.05323 11.4464 4.96057 12.0109L4.27863 16.1659C4.2674 16.2343 4.27853 16.3036 4.30766 16.3615C4.3787 16.5027 4.51526 16.5255 4.60897 16.474L8.17967 14.5123C8.69201 14.2308 9.3079 14.2308 9.8202 14.5123L13.3909 16.474C13.434 16.4977 13.48 16.5045 13.5234 16.4967C13.5864 16.4854 13.6553 16.4449 13.7056 16.3752C13.754 16.3082 13.7706 16.2347 13.7603 16.1681L13.0393 12.0109C12.9466 11.4464 13.1238 10.8631 13.5279 10.4514L16.4167 7.50878C16.4568 7.46792 16.4872 7.40957 16.4968 7.34084C16.5227 7.15465 16.3972 7.03293 16.2925 7.01703L12.3003 6.41082C11.7218 6.32297 11.2377 5.94613 10.9919 5.42557L9.2065 1.64523C9.1788 1.58657 9.1367 1.54586 9.0928 1.52324ZM7.437 1.00466C7.85086 0.12835 8.89685 -0.265571 9.7804 0.1901C10.1257 0.36818 10.3985 0.65665 10.5629 1.00466L12.3482 4.78501C12.3898 4.87307 12.4613 4.91807 12.5255 4.92782L16.5177 5.53403C17.4915 5.6819 18.1133 6.60658 17.9825 7.54743C17.9296 7.92749 17.7578 8.28392 17.4871 8.55961L14.5984 11.5022C14.5379 11.5638 14.5029 11.6621 14.5191 11.7656L15.2401 15.923C15.4008 16.9021 14.7151 17.807 13.788 17.9732C13.4037 18.0421 13.0097 17.976 12.6686 17.7887L9.0979 15.827C9.0354 15.7926 8.96447 15.7926 8.90194 15.827L5.33123 17.7887C4.46031 18.2672 3.40376 17.9024 2.96767 17.0356C2.79485 16.6921 2.7363 16.3015 2.79843 15.923L3.48038 11.768C3.49751 11.6636 3.4624 11.5642 3.40151 11.5022L0.51275 8.55961C-0.159161 7.87517 -0.171952 6.76534 0.48168 6.06461C0.74558 5.78168 1.09641 5.59261 1.48217 5.53403L5.47434 4.92782C5.53853 4.91807 5.61006 4.87307 5.65165 4.78501L7.437 1.00466Z" fill="#BDBDBD"/>
</svg>
