<svg width="20" height="20" viewBox="0 0 20 20" fill="none" xmlns="http://www.w3.org/2000/svg">
<g clip-path="url(#clip0_1680_14310)">
<mask id="mask0_1680_14310" style="mask-type:luminance" maskUnits="userSpaceOnUse" x="0" y="0" width="20" height="20">
<path d="M14 0H6C2.68629 0 0 2.68629 0 6V14C0 17.3137 2.68629 20 6 20H14C17.3137 20 20 17.3137 20 14V6C20 2.68629 17.3137 0 14 0Z" fill="white"/>
</mask>
<g mask="url(#mask0_1680_14310)">
<path fill-rule="evenodd" clip-rule="evenodd" d="M1 5.75C1 4.23122 2.23122 3 3.75 3H16.25C17.7688 3 19 4.23122 19 5.75V14.25C19 15.7688 17.7688 17 16.25 17H3.75C2.23122 17 1 15.7688 1 14.25V5.75ZM6.5 15.5H16.25C16.9404 15.5 17.5 14.9404 17.5 14.25V5.75C17.5 5.05964 16.9404 4.5 16.25 4.5H6.5V15.5ZM5 4.5V15.5H3.75C3.05964 15.5 2.5 14.9404 2.5 14.25V5.75C2.5 5.05964 3.05964 4.5 3.75 4.5H5ZM11.7483 7.18944C12.0579 7.46463 12.0857 7.93869 11.8106 8.24827L10.9201 9.25H14.75C15.1642 9.25 15.5 9.58579 15.5 10C15.5 10.4142 15.1642 10.75 14.75 10.75H10.9201L11.8106 11.7517C12.0857 12.0613 12.0579 12.5354 11.7483 12.8106C11.4387 13.0857 10.9646 13.0579 10.6894 12.7483L8.68944 10.4983C8.43685 10.2141 8.43685 9.78589 8.68944 9.50173L10.6894 7.25173C10.9646 6.94214 11.4387 6.91425 11.7483 7.18944Z" fill="#BDBDBD"/>
</g>
</g>
<defs>
<clipPath id="clip0_1680_14310">
<rect width="20" height="20" fill="white"/>
</clipPath>
</defs>
</svg>
