<svg width="10" height="13" viewBox="0 0 10 13" fill="none" xmlns="http://www.w3.org/2000/svg">
<path d="M4.29323 11.8113C4.48073 11.9986 4.7349 12.1038 4.9999 12.1038C5.2649 12.1038 5.51906 11.9986 5.70656 11.8113L9.47923 8.04064C9.66683 7.85304 9.77222 7.59861 9.77222 7.33331C9.77222 7.068 9.66683 6.81357 9.47923 6.62597C9.29163 6.43838 9.0372 6.33299 8.7719 6.33299C8.50659 6.33299 8.25216 6.43838 8.06456 6.62597L5.9999 8.68997L5.9999 0.999973C5.9999 0.734756 5.89454 0.480403 5.707 0.292867C5.51947 0.10533 5.26511 -2.67029e-05 4.9999 -2.67029e-05C4.73468 -2.67029e-05 4.48033 0.10533 4.29279 0.292867C4.10525 0.480403 3.9999 0.734756 3.9999 0.999973L3.9999 8.68997L1.9359 6.62597C1.84301 6.53308 1.73273 6.4594 1.61137 6.40913C1.49 6.35886 1.35993 6.33299 1.22856 6.33299C1.0972 6.33299 0.967121 6.35886 0.845757 6.40913C0.724393 6.4594 0.614118 6.53308 0.521229 6.62597C0.428341 6.71886 0.354658 6.82914 0.304388 6.9505C0.254117 7.07186 0.228243 7.20194 0.228243 7.33331C0.228243 7.46467 0.254117 7.59475 0.304388 7.71611C0.354658 7.83748 0.428341 7.94775 0.521229 8.04064L4.29323 11.8113Z" fill="#EB5757"/>
</svg>
