<svg width="195" height="24" viewBox="0 0 195 24" fill="none" xmlns="http://www.w3.org/2000/svg">
<path fill-rule="evenodd" clip-rule="evenodd" d="M98.6529 20.0731L101.082 23.8356H105.082L101.685 18.6484C100.881 17.4429 100.169 16.7306 99.5296 16.5297C100.151 16.274 100.826 15.5799 101.539 14.4658L104.735 9.6621H100.735L98.5251 13.0411C98.0685 13.7534 97.6849 14.2283 97.3379 14.4658C96.9908 14.7032 96.4977 14.8311 95.8584 14.8311H94.9817V4H91.3835V23.8356H94.9817V18.2831H95.968C96.6073 18.2831 97.1004 18.411 97.4474 18.6484C97.7945 18.9041 98.1963 19.379 98.6529 20.0731ZM40.3288 23.8534L41.7534 20.2187H48.7489L50.1735 23.8534H54.5023L46.4658 4.01776H44.1644L36 23.8534H40.3288ZM43.1094 16.4927L45.2646 11.0863L47.3833 16.4927H43.1094ZM62.593 9.47852H62.8122C63.9812 9.47852 65.0953 9.71596 66.173 10.1908C67.2323 10.6657 68.0908 11.305 68.7118 12.1087L66.6844 14.0082C66.246 13.515 65.6615 13.1132 64.9127 12.8027C64.1638 12.4922 63.488 12.3278 62.867 12.3278H62.6478C61.9903 12.3461 61.4606 12.4739 61.0588 12.7297C60.657 12.9671 60.4561 13.3141 60.4561 13.7525C60.4561 14.1543 60.6387 14.4466 60.9857 14.6292C61.3328 14.8118 61.9355 14.958 62.8122 15.031L63.7803 15.1406C67.2688 15.3781 69.0223 16.8575 69.0223 19.5607C69.0223 20.8392 68.5109 21.8986 67.4698 22.7388C66.4287 23.579 65.0588 23.9991 63.3419 23.9991H63.1958C61.8077 23.9991 60.4926 23.7434 59.2506 23.2502C58.0268 22.7571 57.1136 22.0995 56.5291 21.2776L58.5748 19.3598C58.9949 19.8529 59.6341 20.2548 60.5291 20.5835C61.4241 20.9123 62.3008 21.0767 63.1593 21.0767H63.3054C64.73 21.0767 65.4241 20.6201 65.4241 19.6886C65.4241 19.1589 65.2414 18.7936 64.8579 18.5927C64.4743 18.3918 63.8533 18.2456 62.9949 18.1726L62.2095 18.0813C58.6661 17.7708 56.8762 16.4009 56.8762 13.9717C56.8762 12.5653 57.4241 11.4876 58.52 10.684C59.5976 9.89861 60.9492 9.49678 62.593 9.47852ZM83.9644 23.8352H86.3753V9.66167H83.9644L83.7635 11.6708C82.6128 10.1914 81.0603 9.46076 79.0694 9.46076C77.0785 9.46076 75.4347 10.1731 74.1196 11.5795C72.8046 12.9859 72.147 14.7028 72.147 16.7484C72.147 18.7758 72.8046 20.4927 74.1196 21.8991C75.4347 23.3055 77.0785 23.9996 79.0694 23.9996C81.042 23.9996 82.6128 23.2872 83.7635 21.8261L83.9644 23.8352ZM79.3937 20.53C80.38 20.53 81.2385 20.183 81.9508 19.4889C82.6631 18.7949 83.0467 17.8816 83.0467 16.7675C83.0467 15.6533 82.6814 14.7401 81.9508 14.0278C81.2202 13.3154 80.3618 12.9684 79.3937 12.9684C78.4074 12.9684 77.549 13.3154 76.8367 14.0278C76.1061 14.7401 75.7408 15.6533 75.7408 16.7675C75.7408 17.8816 76.1061 18.7949 76.8184 19.4889C77.5307 20.183 78.3892 20.53 79.3937 20.53ZM121.35 23.8352H118.94L118.739 21.8261C117.588 23.2872 116.017 23.9996 114.045 23.9996C112.054 23.9996 110.41 23.3055 109.095 21.8991C107.78 20.4927 107.122 18.7758 107.122 16.7484C107.122 14.7028 107.78 12.9859 109.095 11.5795C110.41 10.1731 112.054 9.46076 114.045 9.46076C116.035 9.46076 117.588 10.1914 118.739 11.6708L118.94 9.66167H121.35V23.8352ZM116.951 19.4889C116.238 20.183 115.38 20.53 114.394 20.53C113.389 20.53 112.531 20.183 111.818 19.4889C111.106 18.7949 110.741 17.8816 110.741 16.7675C110.741 15.6533 111.106 14.7401 111.837 14.0278C112.549 13.3154 113.407 12.9684 114.394 12.9684C115.362 12.9684 116.22 13.3154 116.951 14.0278C117.681 14.7401 118.047 15.6533 118.047 16.7675C118.047 17.8816 117.681 18.7949 116.951 19.4889ZM129.811 4V11.0502C130.743 9.99087 131.985 9.46119 133.556 9.46119C135.546 9.46119 137.19 10.1735 138.487 11.5799C139.784 12.9863 140.441 14.7032 140.441 16.7489C140.441 18.7945 139.784 20.5114 138.487 21.8995C137.19 23.3059 135.546 24 133.556 24C131.565 24 129.994 23.2694 128.825 21.8265L128.624 23.8356H126.213V4H129.811ZM133.19 12.9684C134.158 12.9684 135.016 13.3154 135.747 14.0278C136.459 14.7401 136.825 15.6351 136.843 16.7675C136.843 17.8816 136.478 18.7949 135.765 19.4889C135.053 20.183 134.194 20.53 133.19 20.53C132.222 20.53 131.363 20.183 130.633 19.4889C129.902 18.7949 129.537 17.8816 129.537 16.7675C129.537 15.6533 129.902 14.7401 130.633 14.0278C131.345 13.3154 132.204 12.9684 133.19 12.9684ZM157.792 23.8352H155.381L155.18 21.8261C154.03 23.2872 152.459 23.9996 150.486 23.9996C148.514 23.9996 146.852 23.3055 145.537 21.8991C144.221 20.4927 143.564 18.7758 143.564 16.7484C143.564 14.7028 144.221 12.9859 145.537 11.5795C146.852 10.1731 148.495 9.46076 150.486 9.46076C152.477 9.46076 154.03 10.1914 155.18 11.6708L155.381 9.66167H157.792V23.8352ZM153.371 19.4889C152.659 20.183 151.8 20.53 150.814 20.53C149.828 20.53 148.969 20.183 148.239 19.4889C147.527 18.7949 147.161 17.8816 147.161 16.7675C147.161 15.6533 147.527 14.7401 148.257 14.0278C148.969 13.3154 149.828 12.9684 150.814 12.9684C151.782 12.9684 152.641 13.3154 153.371 14.0278C154.102 14.7401 154.467 15.6533 154.467 16.7675C154.467 17.8816 154.102 18.7949 153.371 19.4889ZM170.173 9.47852C172.182 9.47852 173.698 10.0995 174.758 11.3415C175.817 12.5835 176.347 14.2639 176.347 16.3644V23.8347H172.749V16.5835C172.749 14.1726 171.708 12.9488 169.607 12.9488C168.53 12.9488 167.708 13.2776 167.105 13.9351C166.52 14.5927 166.228 15.579 166.228 16.894V23.8347H162.63V9.66116H165.041L165.297 11.8712C166.283 10.2822 167.909 9.47852 170.173 9.47852ZM188.472 20.0731L190.901 23.8356H194.901L191.504 18.6484C190.7 17.4429 189.988 16.7306 189.349 16.5297C189.97 16.274 190.645 15.5799 191.358 14.4658L194.536 9.6621H190.554L188.344 13.0411C187.887 13.7534 187.504 14.2283 187.157 14.4658C186.81 14.7032 186.317 14.8311 185.677 14.8311H184.801V4H181.202V23.8356H184.801V18.2831H185.787C186.426 18.2831 186.919 18.411 187.266 18.6484C187.613 18.9041 188.015 19.379 188.472 20.0731Z" fill="#454142"/>
<path d="M3.8676 18.9795L2.36691 20.4802C1.57794 21.2692 0.788969 22.0581 0 22.8471V18.985L0.00551727 18.9795H3.8676V18.9795Z" fill="#E41D32"/>
<path d="M17.254 18.9795V24.0002H1.16016L3.45534 21.705L4.48155 20.6843L6.18087 18.9795H17.254Z" fill="#E41D32"/>
<path d="M17.2509 7.91113V17.3401H7.81641C10.9171 14.245 14.1061 11.056 17.2509 7.91113Z" fill="#E41D32"/>
<path d="M23.9973 1.1582V23.9997H18.8828V6.27271C19.8042 5.35133 20.7256 4.42994 21.647 3.50304L23.9973 1.1582Z" fill="#E41D32"/>
<path d="M22.846 0C16.6667 6.18486 10.8349 12.0166 5.50525 17.3463H1.62109L18.7577 0H22.846Z" fill="#E41D32"/>
<path d="M16.458 0L0 16.6566V0H16.458Z" fill="#E41D32"/>
</svg>
